<?xml version="1.0" standalone="no"?><!DOCTYPE svg PUBLIC "-//W3C//DTD SVG 1.1//EN" "http://www.w3.org/Graphics/SVG/1.1/DTD/svg11.dtd"><svg t="1736756270521" class="icon" viewBox="0 0 1024 1024" version="1.1" xmlns="http://www.w3.org/2000/svg" p-id="9414" width="48" height="48" xmlns:xlink="http://www.w3.org/1999/xlink"><path d="M937.6768 456.61696l-212.84608 0.15872 92.42624-204.34944 118.1952 199.87456c0.7936 1.28 1.58976 2.87744 2.2272 4.31616z m-593.67936 32.4608v0.15872H677.5808l-166.07744 519.1936c-0.31744 0-0.63744-0.15616-1.1136-0.15616l-166.39488-519.19616z m-137.28768-231.3728v-0.00256l90.03776 198.91456H89.14944c0.95488-1.28 1.74848-2.87744 2.70336-4.31616l114.85696-194.59584z m-121.37728 231.3728h224.7808l150.64832 470.1056-365.08928-458.752a605.80096 605.80096 0 0 0-7.63392-9.7536h-1.75104l-0.95488-1.6z m852.98432 0a33.97632 33.97632 0 0 1-6.04928 11.35104L557.0048 971.81696l154.46528-482.7392h226.84928zM786.08384 250.2912l-98.816 206.3232h-359.2448l-92.4928-205.59872 550.5536-0.72448zM470.7072 0h55.0528v166.0544h-55.0528V0z m-145.0112 55.35232l68.81792 119.83872-47.67744 27.6736-68.81792-119.83872 47.67744-27.6736z m351.4624 0l47.67744 27.6736-68.81536 119.84128-47.68-27.67616 68.81792-119.83872z" fill="#999999" p-id="9415"></path></svg>