<?xml version="1.0" standalone="no"?><!DOCTYPE svg PUBLIC "-//W3C//DTD SVG 1.1//EN" "http://www.w3.org/Graphics/SVG/1.1/DTD/svg11.dtd"><svg t="1736756238476" class="icon" viewBox="0 0 1024 1024" version="1.1" xmlns="http://www.w3.org/2000/svg" p-id="8311" xmlns:xlink="http://www.w3.org/1999/xlink" width="48" height="48"><path d="M877.923556 191.886222c-70.798222 0-133.091556-57.614222-134.144-128.426666a28.501333 28.501333 0 0 0-28.444445-28.088889H293.162667c-15.559111 0-26.268444 12.529778-26.510223 28.088889-1.038222 70.798222-57.528889 128.455111-128.312888 128.455111-15.715556 0-24.561778 12.743111-24.561778 28.444444v406.883556C113.777778 868.110222 484.266667 982.698667 500.195556 987.448889c2.673778 0.810667 1.536 1.194667 4.266666 1.194667 3.384889 0 10.666667-0.611556 13.909334-1.834667 15.843556-5.944889 391.864889-148.423111 391.864888-359.409778v-407.04c0-15.715556-16.625778-28.472889-32.312888-28.472889zM853.333333 246.627556v243.854222H512v-398.222222h177.422222c13.269333 85.333333 78.577778 142.08 163.911111 154.368zM319.061333 92.259556H483.555556v398.222222H170.666667V246.627556c71.111111-12.288 135.096889-69.034667 148.394666-154.368zM170.666667 627.256889v-108.330667h312.888889v401.237334c-89.770667-33.578667-312.888889-133.148444-312.888889-292.906667z m341.333333 302.506667V518.926222h341.333333v108.458667c0 138.012444-237.568 261.262222-341.333333 302.378667z" fill="#999999" p-id="8312"></path><path d="M371.057778 787.043556c-49.479111-24.860444-87.594667-59.790222-110.193778-101.063112a14.193778 14.193778 0 1 0-24.931556 13.653334c25.372444 46.364444 67.683556 85.361778 122.368 112.839111a14.208 14.208 0 0 0 12.757334-25.429333zM237.340444 628.792889a161.678222 161.678222 0 0 1-2.972444-12.074667 14.236444 14.236444 0 0 0-27.960889 5.219556s0.995556 5.418667 3.555556 14.520889a14.222222 14.222222 0 0 0 27.377777-7.665778z" fill="#999999" p-id="8313"></path></svg>