<?xml version="1.0" standalone="no"?><!DOCTYPE svg PUBLIC "-//W3C//DTD SVG 1.1//EN" "http://www.w3.org/Graphics/SVG/1.1/DTD/svg11.dtd"><svg t="1739351805211" class="icon" viewBox="0 0 1030 1024" version="1.1" xmlns="http://www.w3.org/2000/svg" p-id="2297" width="24.140625" height="24" xmlns:xlink="http://www.w3.org/1999/xlink"><path d="M815.135612 821.345094c0 11.854465-8.467475 22.579934-20.32194 22.579934L237.089305 843.925028c-11.854465 0-20.32194-10.16097-20.32194-22.579934l0-51.36935c0-11.854465 8.467475-22.579934 20.32194-22.579934l557.724366 0c11.854465 0 20.32194 10.16097 20.32194 22.579934L815.135612 821.345094z" fill="#999999" p-id="2298"></path><path d="M808.361632 378.77839l-181.768467 0L626.593164 42.901874c0-13.54796-11.854465-25.966924-27.660419-25.966924L430.712238 16.93495c-15.241455 0-27.660419 11.854465-27.660419 25.966924l0 336.441014L224.670342 379.342889c-15.241455 3.38699-13.54796 22.579934-5.080485 29.353914l285.071665 285.071665c6.77398 6.77398 18.628445 6.77398 25.966924 0l285.071665-285.071665C821.909592 401.358324 820.216097 382.729879 808.361632 378.77839z" fill="#999999" p-id="2299"></path><path d="M995.210584 471.356119l-104.432194 0 0 63.223815 82.416759 0 0 406.438809-914.487321 0 0-406.438809 82.416759 0L141.124587 471.356119 34.434399 471.356119c-18.628445 0-34.434399 15.241455-34.434399 34.434399l0 463.453142c0 18.628445 15.241455 34.434399 34.434399 34.434399l960.776185 0c18.628445 0 34.434399-15.241455 34.434399-34.434399L1029.644983 505.790518C1029.644983 486.597574 1014.403528 471.356119 995.210584 471.356119z" fill="#999999" p-id="2300"></path></svg>