<svg id="图层_1" data-name="图层 1" xmlns="http://www.w3.org/2000/svg" viewBox="0 0 163.62 54.68"><defs><style>.cls-1{fill:#de5511;}.cls-2{fill:#fff;}</style></defs><title>美特柏logo-白色</title><path class="cls-1" d="M2,20.09S19.92.15,50.54.57,97,20.09,98.23,20.09c-2.67-.61-18.5-15.21-48.1-15.21S5.12,19.68,2,20.09Z" transform="translate(-2.03 -0.56)"/><rect class="cls-1" x="45.53" y="8.23" width="5.14" height="46.45"/><rect class="cls-2" x="151.23" y="17.02" width="5.14" height="36.95"/><rect class="cls-1" x="158.48" y="48.77" width="5.14" height="5.14"/><path class="cls-2" d="M83.33,39.78a9.81,9.81,0,0,1-.1,2.32L60,42.29a9.9,9.9,0,0,0,4.21,6.37A9.57,9.57,0,0,0,70.28,50,8.48,8.48,0,0,0,77,45.38h5.75c-1.95,5.24-7.55,9.86-12.43,9.86a15,15,0,0,1-10.9-4.08,14,14,0,0,1-4.21-10.49,13.76,13.76,0,0,1,4.1-10.32,14.49,14.49,0,0,1,10.53-4c4.09,0,6.75,1.71,9.21,4.14S83.33,35.7,83.33,39.78ZM69.26,31.5A9.29,9.29,0,0,0,62.93,34a7,7,0,0,0-2.69,4H77.83A9,9,0,0,0,75,33.35,9.67,9.67,0,0,0,69.26,31.5Z" transform="translate(-2.03 -0.56)"/><path class="cls-2" d="M115.73,27.26h0V42.8c0,2.25.14,3.06-1.2,4.49s-4.48,2.4-6.57,2.4a7.78,7.78,0,0,1-5-1.33c-1.63-1.07-1.33-3.29-1.33-5.51V27.26H90.42V17.57H85.28v37h5.14v-23h6V42.67c0,3.67.67,6.62,2.93,9s4.49,3.23,8,3.23a12.11,12.11,0,0,0,8.36-3v2.63h5.14V27.26Z" transform="translate(-2.03 -0.56)"/><path class="cls-2" d="M137.3,26.58a14.11,14.11,0,0,0-9.54,3.7V16.39H122.9V54.52h4.86V51.21a14.16,14.16,0,1,0,9.54-24.63Zm-.11,23.48a9.43,9.43,0,1,1,9.43-9.43A9.43,9.43,0,0,1,137.19,50.06Z" transform="translate(-2.03 -0.56)"/><path class="cls-2" d="M43,30.83c-2.34-2.58-5.69-3.44-9.09-3.44a11.84,11.84,0,0,0-10,5.49,11.82,11.82,0,0,0-10-5.49c-3.4,0-6.74.86-9.09,3.44S2.26,36.61,2.39,40v15H7.55V40c0-2-.13-4.94.77-6.06,2.63-3.22,9.81-1.58,12.16,1.17l0,0c1,1.16.81,3,.81,4.86v15h5.16V40c0-1.82-.17-3.7.81-4.86l0,0c2.35-2.75,9.53-4.39,12.16-1.17.91,1.12.77,4.1.77,6.06v15h5.16V40C45.52,36.61,45.37,33.46,43,30.83Z" transform="translate(-2.03 -0.56)"/></svg>