<?xml version="1.0" standalone="no"?><!DOCTYPE svg PUBLIC "-//W3C//DTD SVG 1.1//EN" "http://www.w3.org/Graphics/SVG/1.1/DTD/svg11.dtd"><svg t="1750048451961" class="icon" viewBox="0 0 1024 1024" version="1.1" xmlns="http://www.w3.org/2000/svg" p-id="8885" width="55" height="55" xmlns:xlink="http://www.w3.org/1999/xlink"><path d="M512 0C229.23 0 0 229.23 0 512s229.23 512 512 512 512-229.23 512-512C1023.68 229.36 794.64 0.32 512 0z m223.95 535.57L441.28 756.58c-5.1 3.83-11.3 5.89-17.68 5.89-16.27 0-29.47-13.19-29.47-29.47V290.99c0-16.27 13.19-29.47 29.47-29.47 6.38 0 12.58 2.07 17.68 5.89l294.68 221.01c13.02 9.76 15.66 28.24 5.89 41.25a29.193 29.193 0 0 1-5.9 5.9z" fill="#8A8A8A" p-id="8886"></path></svg>