<?xml version="1.0" standalone="no"?><!DOCTYPE svg PUBLIC "-//W3C//DTD SVG 1.1//EN" "http://www.w3.org/Graphics/SVG/1.1/DTD/svg11.dtd"><svg t="1585559984417" class="icon" viewBox="0 0 1024 1024" version="1.1" xmlns="http://www.w3.org/2000/svg" p-id="15119" width="16" height="16" xmlns:xlink="http://www.w3.org/1999/xlink"><defs><style type="text/css"></style></defs><path d="M490.688422 1024.000004c-3.132802 0-6.265604-0.68197-9.163978-2.067223l-447.543135-213.115779C26.56488 805.279281 21.833709 797.798917 21.833709 789.572648l0-660.658913c0-7.309871 3.750838-14.108265 9.931195-18.029595C37.923951 106.984121 45.702677 106.536578 52.309266 109.66938L490.688422 318.416285l438.379156-208.768217c6.606589-3.11149 14.342692-2.685259 20.523049 1.236072C955.792297 114.80547 959.543135 121.603863 959.543135 128.913734l0 660.658913c0 8.226269-4.73117 15.706633-12.147599 19.244355l-447.543135 213.115779C496.954026 1023.318034 493.821224 1024.000004 490.688422 1024.000004zM64.456865 776.103731l426.231557 202.971467 426.231557-202.971467L916.919979 162.671274l-417.067579 198.602594c-5.775438 2.749194-12.531208 2.749194-18.306645 0L64.456865 162.671274 64.456865 776.103731z" p-id="15120" fill="#999999"></path><path d="M490.688422 260.086496 119.163685 83.179088C108.529208 78.106933 104.032465 65.383921 109.083309 54.770755c5.072156-10.634477 17.773856-15.088597 28.408333-10.101688L490.688422 212.881351l353.19678-168.212284c10.655789-4.986909 23.336178-0.532789 28.408333 10.101688 5.050844 10.613166 0.554101 23.336178-10.080376 28.408333L490.688422 260.086496z" p-id="15121" fill="#999999"></path><path d="M469.376844 342.029513l42.623156 0 0 660.658913-42.623156 0 0-660.658913Z" p-id="15122" fill="#999999"></path></svg>