<?xml version="1.0" standalone="no"?><!DOCTYPE svg PUBLIC "-//W3C//DTD SVG 1.1//EN" "http://www.w3.org/Graphics/SVG/1.1/DTD/svg11.dtd"><svg t="1718708351951" class="icon" viewBox="0 0 1024 1024" version="1.1" xmlns="http://www.w3.org/2000/svg" p-id="14201" width="32" height="32" xmlns:xlink="http://www.w3.org/1999/xlink"><path d="M512 0a512 512 0 1 1 0 1024A512 512 0 0 1 512 0z m0 64a448 448 0 1 0 0 896A448 448 0 0 0 512 64z" fill="#EF7A19" p-id="14202"></path><path d="M688.128 565.376l-204.608 136.384A64 64 0 0 1 384 648.512V375.68a64 64 0 0 1 99.52-53.248l204.608 136.384a64 64 0 0 1 0 106.56z" fill="#EF7A19" p-id="14203"></path></svg>