<?xml version="1.0" standalone="no"?><!DOCTYPE svg PUBLIC "-//W3C//DTD SVG 1.1//EN" "http://www.w3.org/Graphics/SVG/1.1/DTD/svg11.dtd"><svg t="1739418112911" class="icon" viewBox="0 0 1024 1024" version="1.1" xmlns="http://www.w3.org/2000/svg" p-id="2448" width="36" height="36" xmlns:xlink="http://www.w3.org/1999/xlink"><path d="M795.904 750.72l124.992 124.928a32 32 0 0 1-45.248 45.248L750.656 795.904a416 416 0 1 1 45.248-45.248zM480 832a352 352 0 1 0 0-704 352 352 0 0 0 0 704m-32-384v-96a32 32 0 0 1 64 0v96h96a32 32 0 0 1 0 64h-96v96a32 32 0 0 1-64 0v-96h-96a32 32 0 0 1 0-64z" p-id="2449" fill="#ffffff"></path></svg>