<?xml version="1.0" standalone="no"?><!DOCTYPE svg PUBLIC "-//W3C//DTD SVG 1.1//EN" "http://www.w3.org/Graphics/SVG/1.1/DTD/svg11.dtd"><svg t="1701502976419" class="icon" viewBox="0 0 1024 1024" version="1.1" xmlns="http://www.w3.org/2000/svg" p-id="5741" width="80" height="80" xmlns:xlink="http://www.w3.org/1999/xlink"><path d="M128 128h768a42.666667 42.666667 0 0 1 42.666667 42.666667v682.666666a42.666667 42.666667 0 0 1-42.666667 42.666667H128a42.666667 42.666667 0 0 1-42.666667-42.666667V170.666667a42.666667 42.666667 0 0 1 42.666667-42.666667z m192 352V384H256v256h64v-96h85.333333V640H469.333333V384H405.333333v96h-85.333333z m298.666667-32H682.666667a21.333333 21.333333 0 0 1 21.333333 21.333333v85.333334a21.333333 21.333333 0 0 1-21.333333 21.333333h-64v-128zM554.666667 384v256h128a85.333333 85.333333 0 0 0 85.333333-85.333333v-85.333334a85.333333 85.333333 0 0 0-85.333333-85.333333h-128z" p-id="5742" fill="#666666"></path></svg>