<svg xmlns="http://www.w3.org/2000/svg" width="34.968" height="15" viewBox="0 0 34.968 15">
  <defs>
    <style>
      .cls-1 {
        fill: #fff;
        fill-rule: evenodd;
      }
    </style>
  </defs>
  <path id="形状_25" data-name="形状 25" class="cls-1" d="M395.923,8401.99v-15h2.807v12.23h6.664v2.77h-9.471Zm11.011,0v-15h9.918v2.61h-7.147v3.2h6.534v2.56h-6.534v3.86h7.481v2.77H406.934Zm12.393,0v-15h5.347a5.739,5.739,0,0,1,4.686,1.86c1.029,1.25,1.543,3.13,1.543,5.66a10.54,10.54,0,0,1-.57,3.62,6.025,6.025,0,0,1-1.655,2.53,4.752,4.752,0,0,1-1.854,1.02,10.518,10.518,0,0,1-2.91.31h-4.587Zm2.752-2.71h2.252a3.363,3.363,0,0,0,2.832-1.12,5.982,5.982,0,0,0,.878-3.65,6.622,6.622,0,0,0-.817-3.7,2.874,2.874,0,0,0-2.55-1.18h-2.595v9.65Z" transform="translate(-395.938 -8387)"/>
</svg>
