<?xml version="1.0" standalone="no"?><!DOCTYPE svg PUBLIC "-//W3C//DTD SVG 1.1//EN" "http://www.w3.org/Graphics/SVG/1.1/DTD/svg11.dtd"><svg t="1743232285144" class="icon" viewBox="0 0 1024 1024" version="1.1" xmlns="http://www.w3.org/2000/svg" p-id="5933" xmlns:xlink="http://www.w3.org/1999/xlink" width="32" height="32"><path d="M382.605194 737.329868A351.647914 351.647914 0 0 1 732.979021 386.95604a249.083939 249.083939 0 0 1 31.852166 0 411.529986 411.529986 0 0 0-310.877141-191.112997H414.45736a414.07816 414.07816 0 0 0 0 828.15632 399.426163 399.426163 0 0 0 100.652845-12.740866A349.099741 349.099741 0 0 1 382.605194 737.329868zM247.552009 450.660373c-26.75582 45.230076-70.711809 68.800679-98.741715 52.874595s-29.303993-63.704332-3.185216-111.482581S216.336886 323.251708 244.366793 336.629618s29.303993 66.252506 3.185216 114.030755z" p-id="5934" fill="#cdcdcd"></path><path d="M876.313769 489.520015a219.779946 219.779946 0 0 0-34.40034-17.837213h-3.82226a242.076463 242.076463 0 0 0-38.222599-11.46678A259.913676 259.913676 0 0 0 732.979021 450.660373a275.839759 275.839759 0 0 0-142.060661 38.222599 286.032452 286.032452 0 0 0 0 496.256748 240.165333 240.165333 0 0 0 36.31147 17.837213 268.195239 268.195239 0 0 0 40.133729 12.740867 265.010022 265.010022 0 0 0 65.615462 8.281563 286.669495 286.669495 0 0 0 143.334748-534.479348zM845.735689 406.06734a224.23925 224.23925 0 0 1 17.20017 40.133729 17.837213 17.837213 0 0 1 0 7.64452 12.740866 12.740866 0 0 0 7.007476-3.185216 205.764993 205.764993 0 0 0 22.296517-24.207647 254.817329 254.817329 0 1 0-414.07816-289.854712 474.597275 474.597275 0 0 1 367.573997 269.469326z" p-id="5935" fill="#cdcdcd"></path> <line x1="0" y1="0" x2="1024" y2="1024" stroke="#666" stroke-width="20"/></svg>