<?xml version="1.0" standalone="no"?><!DOCTYPE svg PUBLIC "-//W3C//DTD SVG 1.1//EN" "http://www.w3.org/Graphics/SVG/1.1/DTD/svg11.dtd"><svg t="1743233078427" class="icon" viewBox="0 0 1024 1024" version="1.1" xmlns="http://www.w3.org/2000/svg" p-id="20320" width="32" height="32" xmlns:xlink="http://www.w3.org/1999/xlink"><path d="M740.894 439.718H162.635c-18.07 0-30.117-12.047-30.117-30.118 0-15.059 12.047-30.118 30.117-30.118h578.26c18.07 0 30.117 12.047 30.117 30.118s-12.047 30.118-30.118 30.118zM524.047 566.212H36.141c-18.07 0-30.117-12.047-30.117-30.118s12.047-30.118 30.117-30.118h487.906c18.07 0 30.118 12.048 30.118 30.118s-15.06 30.118-30.118 30.118z" fill="#cdcdcd" p-id="20321"></path><path d="M740.894 439.718c-18.07 0-30.118-12.047-30.118-30.118 0-15.059 12.048-30.118 30.118-30.118 39.153 0 72.282-33.13 72.282-72.282 0-39.153-33.129-72.282-72.282-72.282s-72.282 33.13-72.282 72.282c0 15.059-12.047 30.118-30.118 30.118s-30.118-12.047-30.118-30.118c0-72.282 60.236-132.518 132.518-132.518S873.412 234.918 873.412 307.2s-57.224 132.518-132.518 132.518z m-87.341 252.988H292.14c-18.07 0-30.117-12.047-30.117-30.118 0-15.059 12.047-30.117 30.117-30.117h358.4c18.07 0 30.118 12.047 30.118 30.117 3.012 18.07-12.047 30.118-27.106 30.118z" fill="#cdcdcd" p-id="20322"></path><path d="M653.553 846.306c-60.235 0-108.424-48.188-108.424-105.412 0-15.059 12.047-30.118 30.118-30.118s30.118 12.048 30.118 30.118c0 27.106 21.082 45.177 48.188 45.177s48.188-21.083 48.188-45.177c0-27.106-21.082-45.176-48.188-45.176-18.07 0-30.118-12.047-30.118-30.118 0-15.059 12.047-30.118 30.118-30.118 60.235 0 108.423 48.189 108.423 105.412s-51.2 105.412-108.423 105.412zM505.976 60.235a18.07 18.07 0 1 0 36.142 0 18.07 18.07 0 1 0-36.142 0zM385.506 1005.93a18.07 18.07 0 1 0 36.141 0 18.07 18.07 0 1 0-36.141 0zM984.847 593.318a18.07 18.07 0 1 0 36.141 0 18.07 18.07 0 1 0-36.14 0zM954.73 472.847a18.07 18.07 0 1 0 36.14 0 18.07 18.07 0 1 0-36.14 0zM337.318 42.165a33.13 33.13 0 1 0 66.258 0 33.13 33.13 0 1 0-66.258 0zM216.847 783.059a33.13 33.13 0 1 0 66.259 0 33.13 33.13 0 1 0-66.259 0zM876.424 752.941a33.13 33.13 0 1 0 66.258 0 33.13 33.13 0 1 0-66.258 0zM403.576 195.765a51.2 51.2 0 1 0 102.4 0 51.2 51.2 0 1 0-102.4 0zM403.576 846.306a51.2 51.2 0 1 0 102.4 0 51.2 51.2 0 1 0-102.4 0zM764.988 551.153a51.2 51.2 0 1 0 102.4 0 51.2 51.2 0 1 0-102.4 0z" fill="#cdcdcd" p-id="20323"></path><line x1="0" y1="0" x2="1024" y2="1024" stroke="#666" stroke-width="20"/></svg>