<?xml version="1.0" standalone="no"?><!DOCTYPE svg PUBLIC "-//W3C//DTD SVG 1.1//EN" "http://www.w3.org/Graphics/SVG/1.1/DTD/svg11.dtd"><svg t="1743233032944" class="icon" viewBox="0 0 1024 1024" version="1.1" xmlns="http://www.w3.org/2000/svg" p-id="18967" width="32" height="32" xmlns:xlink="http://www.w3.org/1999/xlink"><path d="M169.6 130.039h683.2c22.2 0 40.2 18 40.2 40.2v683.2c0 22.2-18 40.2-40.2 40.2H169.6c-22.2 0-40.2-18-40.2-40.2v-683.2c0-22.2 18-40.2 40.2-40.2z m19.2 60.3v643h643v-643h-643z" fill="#cdcdcd" p-id="18968"></path><path d="M498.679 402.9v-80.4h23v80.4z" fill="#cdcdcd" p-id="18969"></path><path d="M430.079 323.9l78.3-133.4 80.5 133.4zM498.679 620.8v80.4h23v-80.4z" fill="#cdcdcd" p-id="18970"></path><path d="M430.079 699.8l78.3 133.4 80.5-133.4zM619.279 500.2h80.4v22.9h-80.4z" fill="#cdcdcd" p-id="18971"></path><path d="M698.279 431.6l133.4 78.3-133.4 80.5zM401.379 500.2h-80.4v22.9h80.4z" fill="#cdcdcd" p-id="18972"></path><path d="M322.379 431.6l-133.4 78.3 133.4 80.5z" fill="#cdcdcd" p-id="18973"></path></svg>