<svg width="65" height="64" viewBox="0 0 65 64" fill="none" xmlns="http://www.w3.org/2000/svg">
<g id="Frame">
<g id="Group 4346">
<path id="Vector" d="M32.5983 7.86781C27.8264 7.86782 23.1618 9.28285 19.1941 11.934C15.2265 14.5851 12.1341 18.3532 10.3079 22.7618C8.48184 27.1704 8.00405 32.0215 8.93499 36.7017C9.86592 41.3819 12.1638 45.6809 15.538 49.0551C17.7767 51.3031 20.4368 53.0875 23.366 54.3062C26.2952 55.5248 29.4361 56.1538 32.6087 56.1571C35.7813 56.1604 38.9234 55.5379 41.8551 54.3253C44.7868 53.1128 47.4506 51.3339 49.694 49.0905C51.9374 46.8471 53.7163 44.1833 54.9289 41.2516C56.1414 38.3199 56.7639 35.1777 56.7606 32.0051C56.7573 28.8325 56.1284 25.6917 54.9097 22.7625C53.691 19.8333 51.9066 17.1732 49.6586 14.9345C47.4234 12.6871 44.7647 10.9053 41.8363 9.69231C38.9079 8.47932 35.768 7.85919 32.5983 7.86781ZM32.5983 5.32812C37.8725 5.32812 43.0282 6.8921 47.4135 9.82227C51.7988 12.7524 55.2167 16.9172 57.2351 21.7899C59.2534 26.6626 59.7815 32.0244 58.7526 37.1972C57.7236 42.37 55.1839 47.1216 51.4545 50.851C47.7251 54.5804 42.9735 57.1201 37.8007 58.1491C32.6279 59.178 27.2661 58.6499 22.3934 56.6316C17.5207 54.6132 13.356 51.1953 10.4258 46.81C7.49561 42.4247 5.93164 37.269 5.93164 31.9948C5.93164 24.9223 8.74116 18.1396 13.7421 13.1386C18.7431 8.13764 25.5259 5.32813 32.5983 5.32812Z" fill="#666666" stroke="#666666" stroke-width="0.8"/>
<path id="Vector_2" d="M10.6446 19.3642L10.3906 16.8372C15.1188 16.5167 19.7915 15.6295 24.3081 14.1946C27.1094 13.1343 27.5805 12.1845 27.6528 11.8238C27.8573 10.808 26.049 9.36035 25.0357 8.80924L26.2484 6.57812C26.7144 6.83209 30.7843 9.14447 30.143 12.3254C29.7938 14.0562 28.1798 15.4442 25.2071 16.5692C20.4836 18.0853 15.5938 19.0238 10.6446 19.3642Z" fill="#666666" stroke="#666666" stroke-width="0.8"/>
<path id="Vector_3" d="M34.3675 58.1519L32.0703 57.0687C32.7389 55.7134 33.534 54.4243 34.4449 53.2185C36.5198 50.4846 38.69 48.9963 40.8932 48.797C43.2779 48.5798 45.4887 49.8674 47.4646 52.6243L45.3998 54.1036C43.9865 52.1316 42.5478 51.1969 41.123 51.3265C39.3008 51.4928 37.5852 53.282 36.4665 54.755C35.6634 55.8201 34.9607 56.9572 34.3675 58.1519Z" fill="#666666" stroke="#666666" stroke-width="0.8"/>
<path id="Vector_4" d="M19.695 25.0072L24.3706 22.3088C24.6591 22.1434 25.0011 22.0978 25.3229 22.1818L36.0874 25.0009L39.8055 22.8548C39.8877 22.8071 39.975 22.7688 40.0658 22.7406C41.041 22.4742 42.0579 22.3949 43.0626 22.5069C44.1341 22.6093 45.1656 22.9665 46.071 23.5485C46.9765 24.1306 47.7296 24.9207 48.2677 25.8529C48.355 25.9976 48.4126 26.1583 48.437 26.3256C48.4614 26.4928 48.4522 26.6633 48.4099 26.8269C48.3678 26.9902 48.2935 27.1435 48.1915 27.2778C48.0895 27.4121 47.9617 27.5247 47.8156 27.6091L37.5426 33.5406L39.8385 41.8644C39.9133 42.1354 39.896 42.4236 39.7894 42.6837C39.6827 42.9439 39.4928 43.1613 39.2493 43.3018L34.0899 46.2809C33.9257 46.3755 33.7424 46.4321 33.5534 46.4466C33.3644 46.4611 33.1746 46.4331 32.9979 46.3647C32.8205 46.2966 32.6606 46.1897 32.5301 46.0517C32.3996 45.9137 32.3016 45.7481 32.2436 45.5672L29.8398 37.9875L22.0988 42.4574C21.8072 42.6258 21.4606 42.6714 21.1353 42.5842C20.81 42.4971 20.5326 42.2843 20.3642 41.9926L16.5483 35.3831C16.4365 35.1889 16.378 34.9685 16.3789 34.7443C16.3798 34.5202 16.44 34.3003 16.5534 34.1069C16.6668 33.9136 16.8293 33.7537 17.0245 33.6436C17.2196 33.5334 17.4404 33.4768 17.6645 33.4796L21.3217 33.5266L27.0868 30.1983L19.8487 27.2904C19.6277 27.2014 19.4362 27.052 19.2961 26.8594C19.156 26.6667 19.0729 26.4385 19.0563 26.2009C19.0393 25.9619 19.0903 25.723 19.2033 25.5118C19.3163 25.3006 19.4868 25.1257 19.695 25.0072ZM25.1883 24.7685L23.2239 25.9025L30.4607 28.8104C30.6819 28.8992 30.8737 29.0485 31.014 29.2412C31.1544 29.4338 31.2377 29.6621 31.2544 29.8999C31.2711 30.1377 31.2205 30.3754 31.1085 30.5859C30.9964 30.7963 30.8274 30.9709 30.6207 31.0898L22.2944 35.8974C22.0969 36.0115 21.8723 36.0702 21.6442 36.0675L19.8715 36.0434L21.9363 39.6206L29.9452 34.9958C30.1096 34.901 30.2931 34.8443 30.4823 34.8298C30.6715 34.8153 30.8616 34.8434 31.0385 34.912C31.2159 34.98 31.3757 35.087 31.5063 35.225C31.6368 35.363 31.7347 35.5286 31.7928 35.7094L34.1953 43.2879L37.1363 41.5901L34.8391 33.2675C34.7645 32.9964 34.7819 32.7081 34.8888 32.4479C34.9957 32.1878 35.1859 31.9705 35.4296 31.8301L45.2836 26.1412C44.6013 25.5029 43.7253 25.1109 42.7947 25.0275C42.1723 24.9637 41.5437 25.0006 40.9331 25.1367L36.9128 27.458C36.6239 27.6238 36.2814 27.6694 35.9591 27.585L25.1883 24.7685Z" fill="#ED6C00" stroke="#ED6C00" stroke-width="0.8"/>
</g>
</g>
</svg>
