<svg width="65" height="64" viewBox="0 0 65 64" fill="none" xmlns="http://www.w3.org/2000/svg">
<g id="Frame">
<g id="Group 4349">
<path id="Vector" d="M32.1791 27.5547C32.6849 27.5547 33.1699 27.7556 33.5276 28.1132C33.8852 28.4709 34.0861 28.9559 34.0861 29.4617V29.7516C35.6423 30.1177 37.0344 30.9301 37.9421 32.1239C38.0993 32.3228 38.2153 32.551 38.2832 32.7952C38.3512 33.0394 38.3698 33.2947 38.3379 33.5461C38.306 33.7976 38.2244 34.0402 38.0977 34.2597C37.971 34.4792 37.8018 34.6713 37.6 34.8247C37.3982 34.9781 37.1678 35.0897 36.9224 35.153C36.6769 35.2163 36.4213 35.2301 36.1705 35.1934C35.9197 35.1568 35.6787 35.0706 35.4616 34.9397C35.2445 34.8089 35.0557 34.6361 34.9061 34.4314C34.5095 33.9051 33.5407 33.3482 32.1791 33.3482C31.3579 33.3277 30.5509 33.5651 29.8716 34.0271C29.3529 34.4085 29.2232 34.7899 29.2232 35.0302C29.2232 35.5337 29.3491 35.6405 29.4864 35.7282C29.7839 35.9303 30.5353 36.1973 32.1791 36.1973C34.0556 36.1973 35.8406 36.4567 37.2022 37.3415C38.7278 38.3408 39.3915 39.9046 39.3915 41.6972C39.3915 43.6957 38.4074 45.1908 36.9123 46.0833C36.0425 46.5846 35.0842 46.9135 34.0899 47.0521V47.2618C34.0899 47.7676 33.889 48.2527 33.5314 48.6103C33.1738 48.9679 32.6887 49.1689 32.1829 49.1689C31.6771 49.1689 31.1921 48.9679 30.8345 48.6103C30.4768 48.2527 30.2759 47.7676 30.2759 47.2618V47.0025C28.9434 46.756 27.6999 46.1612 26.6716 45.2785C26.3002 44.9398 26.0776 44.468 26.0522 43.966C26.0268 43.4639 26.2007 42.9721 26.536 42.5976C26.8713 42.223 27.341 41.9961 27.8428 41.966C28.3446 41.9359 28.838 42.1052 29.2156 42.4371C29.7686 42.9329 30.8251 43.3791 32.1791 43.3791C33.4721 43.3791 34.4065 43.1427 34.9481 42.8147C35.3791 42.5591 35.5774 42.2578 35.5774 41.6972C35.5774 40.9191 35.3562 40.6941 35.1197 40.5377C34.7078 40.2707 33.842 40.0152 32.1829 40.0152C30.2873 40.0152 28.6053 39.7367 27.3543 38.8938C25.9431 37.9403 25.4092 36.5101 25.4092 35.0302C25.4092 33.291 26.3665 31.8722 27.6061 30.9568C28.3727 30.3923 29.2842 29.9842 30.2759 29.7516V29.4617C30.2759 28.9559 30.4768 28.4709 30.8345 28.1132C31.1921 27.7556 31.6771 27.5547 32.1829 27.5547H32.1791Z" fill="#ED6C00"/>
<path id="Vector_2" d="M22.2529 18.8716C21.9096 18.452 21.6007 17.9981 21.2841 17.5366L21.1392 17.3231L18.7669 13.8713L18.7287 13.8141C18.6143 13.6463 18.4389 13.3946 18.2901 13.139C18.0527 12.7477 17.8898 12.3158 17.8095 11.8652C17.7445 11.4796 17.7722 11.0842 17.8902 10.7115C18.0083 10.3387 18.2133 9.99946 18.4884 9.72167C18.9972 9.24619 19.6461 8.94785 20.3382 8.87114C21.6198 8.67662 22.825 9.03133 23.6183 9.26398L23.7175 9.29068C24.5947 9.55003 25.0829 9.69497 25.5292 9.68734C25.8162 9.70184 26.1015 9.63579 26.353 9.49664C26.6622 9.28511 26.9363 9.02643 27.1654 8.73002C27.2989 8.57364 27.4552 8.36005 27.6993 8.03205L27.7985 7.89474C28.0693 7.52859 28.4088 7.07472 28.7902 6.64373C29.4386 5.90381 30.6781 4.67188 32.3982 4.67188C34.1184 4.67188 35.3541 5.90381 36.0101 6.64373C36.3915 7.07472 36.7272 7.52859 36.998 7.89474L37.101 8.03205C37.3412 8.36005 37.4976 8.57364 37.6349 8.73002C37.8632 9.02478 38.136 9.28214 38.4435 9.49282C38.6037 9.59199 38.8325 9.68353 39.2673 9.68734C39.7174 9.69497 40.198 9.55003 41.079 9.29068L41.1782 9.26398C41.9715 9.03133 43.1767 8.67662 44.4582 8.87114C45.1504 8.94785 45.7992 9.24619 46.3081 9.72167C46.5832 9.99946 46.7882 10.3387 46.9063 10.7115C47.0243 11.0842 47.052 11.4796 46.987 11.8652C46.907 12.3159 46.744 12.7478 46.5064 13.139C46.3703 13.3697 46.2253 13.5949 46.0716 13.8141L46.0334 13.8713L43.6611 17.3231L43.5162 17.5366C43.1958 17.9981 42.8869 18.452 42.5436 18.8716C43.459 19.4437 44.1455 20.1149 45.0189 20.9578L45.0838 21.0265C51.3795 27.2329 55.5559 35.2681 57.0179 43.987C57.7578 48.438 56.0491 52.3398 53.1123 55.0668C50.206 57.7672 46.083 59.3385 41.7846 59.3385H23.0119C18.7135 59.3385 14.5905 57.7672 11.6842 55.0668C8.74737 52.3398 7.03868 48.438 7.77861 43.9908C9.23797 35.2696 13.4131 27.2317 19.7089 21.0227L19.7776 20.954C20.6472 20.1111 21.3375 19.4398 22.2529 18.8677V18.8716ZM30.0526 11.2206C29.614 11.7279 29.061 12.319 28.3134 12.7653C27.4861 13.2522 26.5425 13.5065 25.5826 13.5014C24.5337 13.5166 23.5039 13.2115 22.7945 12.9979L24.282 15.1643C25.3766 16.7586 25.5711 16.9378 25.9907 17.1018C26.2576 17.2048 26.639 17.2925 27.3713 17.3383C28.0045 17.3764 28.794 17.3841 29.8772 17.3879H34.9193C36.0025 17.3879 36.7882 17.3803 37.4252 17.3383C37.8948 17.3308 38.3605 17.251 38.8058 17.1018C39.2254 16.9378 39.4199 16.7586 40.5145 15.1643L42.002 12.9979C41.2926 13.2115 40.2628 13.5166 39.2178 13.5014C38.2565 13.5072 37.3116 13.2528 36.4831 12.7653C35.825 12.3475 35.2389 11.8258 34.7477 11.2206C34.5074 10.946 34.2519 10.5913 34.0268 10.29L33.9315 10.1603C33.685 9.81881 33.4242 9.48796 33.1496 9.16863C32.9418 8.90229 32.6872 8.6761 32.3982 8.50117C32.1093 8.6761 31.8547 8.90229 31.6469 9.16863C31.3736 9.48805 31.1141 9.81889 30.8688 10.1603L30.7697 10.29C30.542 10.6088 30.3029 10.9192 30.0526 11.2206ZM29.8047 21.2019H29.6521C27.0738 21.2019 26.2195 21.2248 25.1783 21.652C24.1027 22.0868 23.6755 22.4835 22.3635 23.7612C16.652 29.4006 12.8632 36.6967 11.5354 44.6125C11.0358 47.6371 12.1495 50.2993 14.2739 52.2711C16.4289 54.2697 19.6021 55.5245 23.0081 55.5245H41.7808C45.1829 55.5245 48.36 54.2697 50.5149 52.2711C52.6356 50.2993 53.7569 47.6371 53.2534 44.6125C51.9246 36.6962 48.1344 29.4001 42.4216 23.7612C41.1095 22.4835 40.6862 22.0868 39.6106 21.652C38.5656 21.2248 37.715 21.2019 35.1329 21.2019H29.8085H29.8047Z" fill="#666666"/>
</g>
</g>
</svg>
