<svg width="65" height="64" viewBox="0 0 65 64" fill="none" xmlns="http://www.w3.org/2000/svg">
<g id="Frame">
<g id="Group 4348">
<path id="Vector" d="M16.8989 34.5154C17.4711 34.43 18.0122 34.5335 18.4679 34.6733C18.7087 34.7484 18.9418 34.8365 19.1567 34.9193L19.7962 35.1601L19.8169 35.1705L31.3208 39.9605C32.1131 40.266 32.9002 40.6078 33.6718 40.9392C34.0653 41.1075 34.4537 41.2758 34.8369 41.4338L35.9865 41.8998L36.0098 41.9076L36.0306 41.918C36.9005 42.3115 37.7265 42.8423 38.3686 43.6838L39.3007 43.1504L42.8402 41.0583L42.8428 41.0558L43.7827 40.4861L44.7329 39.8751C45.3698 39.466 46.0223 39.0439 46.6748 38.6581L46.7059 38.64C47.2341 38.363 47.7157 38.0264 48.3008 37.6484C48.8627 37.2859 49.4919 36.9078 50.222 36.6515L50.2453 36.6412L50.2712 36.636C52.6533 35.9654 54.9214 36.4806 56.8219 38.306C57.956 39.3313 58.6007 40.6933 58.7716 42.195C58.9239 43.1031 58.8908 44.0326 58.674 44.9275C58.4573 45.8224 58.0616 46.6641 57.5107 47.4019L57.5132 47.4045C56.6873 48.624 55.5377 49.2946 54.3907 49.9005C53.2773 50.4883 52.208 51.1951 50.8849 51.9719L47.5059 54.0536L43.9535 56.4486L43.9277 56.4667L40.5177 58.564H40.5125L37.5401 60.3532L37.5452 60.3557C36.6804 60.8995 35.637 61.073 34.8162 61.2179C34.1572 61.2839 33.4918 61.2428 32.8458 61.0963L29.6119 60.4774C28.237 60.203 20.4357 58.3543 19.2084 58.2093L14.4365 57.1814H5.53223V35.955L6.20283 35.8644L9.47042 35.4139H9.48078L11.8939 35.1135L15.0036 34.6656H15.0295L15.0528 34.6604L16.8989 34.5154ZM17.2562 39.4582C17.1578 39.466 17.3856 39.4427 17.2562 39.4582C17.163 39.4686 17.3727 39.453 17.2562 39.4582L10.3533 40.3075V52.1816H14.4365L15.7674 52.337L23.9338 53.994L33.6019 56.0913C34.2492 56.2285 34.7981 56.169 35.0829 55.9437L35.1217 55.9178L35.1606 55.8919L40.2717 52.7486L40.2743 52.746L46.3822 49.002L46.4081 48.9839C47.4542 48.3962 48.4717 47.7696 49.5048 47.1326C50.5301 46.4983 51.5736 45.851 52.6533 45.2425C53.0044 45.0502 53.3045 44.7768 53.5284 44.445C53.7416 44.0743 53.8441 43.6501 53.8236 43.2229C53.8357 42.8881 53.7598 42.556 53.6035 42.2597C53.4508 42.0021 53.2257 41.795 52.9562 41.6642L52.9148 41.6435L52.8734 41.6124C52.6008 41.4167 52.2776 41.3035 51.9424 41.2866C51.6072 41.2696 51.2743 41.3494 50.9833 41.5166L45.9162 44.634C44.8442 45.3124 43.7723 45.952 42.7133 46.5863C41.6569 47.2155 40.6057 47.8395 39.5622 48.4997V48.5023C39.1273 48.8079 38.946 48.8752 38.8114 49.0383L38.6819 49.248C37.5737 51.5809 35.2512 52.4975 32.9339 51.889L32.4678 51.744C32.0225 51.5887 31.5434 51.3919 31.0852 51.2081C30.6191 51.019 30.1763 50.8404 29.7698 50.698L29.731 50.6824L22.5019 47.6919L22.4372 47.6712C22.3237 47.6229 22.2187 47.5564 22.1265 47.4744C21.9943 47.3536 21.8898 47.2058 21.8201 47.0409C21.7504 46.876 21.7171 46.6979 21.7226 46.519V44.7065C21.7225 44.4091 21.7957 44.1163 21.9355 43.8539C22.0754 43.5914 22.2777 43.3674 22.5246 43.2016C22.7715 43.0358 23.0554 42.9333 23.3513 42.9032C23.6472 42.873 23.9459 42.9161 24.2212 43.0287L27.3386 44.3026H27.3437L34.1275 47.1352C34.1689 47.1482 34.2569 47.1611 34.3709 47.1326C34.4258 47.1183 34.4782 47.0956 34.5262 47.0653C34.5651 46.9954 34.5676 46.941 34.5521 46.8918C34.5187 46.8113 34.4607 46.7433 34.3864 46.6976L34.2699 46.6355L30.7201 45.1364H30.7149L23.7551 42.1406L19.3664 40.3489L19.3586 40.3463L17.2562 39.4582C17.4115 39.4453 17.1992 39.4427 17.2562 39.4582Z" fill="#666666"/>
<path id="Vector_2" d="M40.625 2.74214C41.627 2.86125 42.6317 3.0658 43.6285 3.35579L44.6279 3.67944L44.672 3.69497C46.1747 4.33559 47.4963 5.33698 48.5195 6.61043C50.0394 8.22868 50.9301 10.2949 51.3754 12.3196L51.479 12.8116C51.6809 13.9353 51.6602 15.0383 51.5308 16.0093L51.5359 16.0119C51.4068 17.6834 50.9419 19.3117 50.1688 20.7993L50.1611 20.8174L50.1533 20.833C49.5939 21.7637 48.9499 22.6408 48.2295 23.4532L47.489 24.2689L34.5688 37.8959C34.1039 38.3568 33.4808 38.6235 32.8263 38.6416C32.4885 38.6646 32.15 38.609 31.8373 38.4792C31.5247 38.3493 31.2463 38.1488 31.0242 37.8933L20.3722 26.6613C19.8912 26.1602 19.4009 25.6682 18.9015 25.1854C18.6501 24.9398 18.3998 24.693 18.1507 24.4449L17.3894 23.6682C15.9343 22.1327 14.9271 20.3358 14.4921 18.2852L14.3445 17.3893C14.2439 16.5117 14.1938 15.6291 14.1943 14.7457V14.6991C14.3445 12.1876 15.0902 9.6398 16.6153 7.55031L16.623 7.53736L17.0787 6.96256C18.0082 5.84143 19.0646 4.88342 20.3748 4.18175L21.048 3.85033C22.1035 3.3511 23.2335 3.02751 24.3932 2.89232C25.662 2.73697 25.8743 2.73697 26.7572 2.73697C27.1844 2.73697 27.5806 2.73697 28.0389 2.81205L28.5179 2.91303L28.5438 2.9208L28.7949 3.00883C29.0676 3.11259 29.3164 3.27046 29.5264 3.47292C29.7364 3.67539 29.9033 3.91826 30.017 4.18692C30.2682 4.78503 30.2397 5.46341 30.0662 6.11071L30.0584 6.14437C29.6908 7.30951 28.6706 7.9128 27.5521 7.9128L27.0705 7.87655C26.664 7.83074 26.2543 7.81862 25.8458 7.8403L25.4548 7.87655C25.0343 7.92568 24.6186 8.00969 24.212 8.12771C23.7573 8.28162 23.3293 8.50523 22.9433 8.79054C22.0008 9.45597 20.7942 10.5642 20.0822 11.9002L19.8129 12.4853C19.2873 13.811 19.0802 14.6214 19.119 15.5872L19.1527 16.0119V16.0196L19.2174 16.5168C19.409 17.656 19.8802 18.7072 20.5612 19.6678L20.9884 20.2012C21.439 20.7372 21.9542 21.2835 22.4928 21.8505L32.8677 32.7925L43.6647 21.5502L44.382 20.7605C45.0759 19.9552 45.6843 19.1008 46.0675 18.1894L46.0805 18.1557C46.474 17.3272 46.733 16.5116 46.8624 15.7037C46.9841 13.9353 46.6009 12.4698 45.7128 11.1312L45.6921 11.1053C44.8195 9.65793 43.4343 8.7051 41.8652 8.14842C41.3413 7.98707 40.7977 7.89821 40.2496 7.88432C38.5355 7.88432 37.026 8.29859 35.7832 9.34981L35.7159 9.4016L35.6434 9.44303C35.548 9.49904 35.4602 9.5669 35.3819 9.64498L34.9935 10.0411L27.1766 18.2722C26.8315 18.6649 26.3579 18.9219 25.8406 18.9972C25.4847 19.035 25.1248 18.9934 24.7868 18.8755L24.4657 18.7538C24.0405 18.563 23.6792 18.2538 23.4249 17.8631C23.1569 17.474 23.0084 17.015 22.9977 16.5426C22.9977 16.2423 23.0028 15.8953 23.1194 15.538C23.2436 15.1626 23.4637 14.8389 23.777 14.5075L27.6168 10.4787C28.8985 9.14785 30.1801 7.83254 31.4644 6.55605C33.0956 4.83941 34.908 3.7131 37.1762 3.22115C38.3258 2.7292 39.5945 2.73438 40.5344 2.73438H40.5784L40.6224 2.73956L40.625 2.74214Z" fill="#ED6C00"/>
</g>
</g>
</svg>
