<svg width="64" height="64" viewBox="0 0 64 64" fill="none" xmlns="http://www.w3.org/2000/svg">
<g id="Frame">
<g id="Group 4350">
<path id="Vector" d="M47.7003 31.912L55.475 24.0645C57.576 21.9435 57.576 18.5505 55.475 16.641L47.2803 8.3691C45.3888 6.4603 41.817 6.4603 39.9254 8.3691L32.1508 16.2165L24.3761 8.3691C22.4845 6.4603 18.9127 6.4603 17.0212 8.3691L8.82497 16.64C6.72394 18.7611 6.72394 22.1541 8.82497 24.0636L16.6006 31.911L13.2383 35.0926C12.6081 35.7287 12.1873 36.3653 11.977 37.2138L7.35424 50.1516C6.72408 51.8485 7.14381 53.5454 7.98536 54.8184C9.03539 56.0911 10.5063 56.9396 12.1874 56.9396C12.8176 56.9396 13.2384 56.9396 13.868 56.7277L26.6862 52.0609C27.5267 51.8486 28.1569 51.4243 28.7872 50.7883L31.9395 47.6069L39.7153 55.4543C40.7653 56.5146 42.0266 56.9389 43.4975 56.9389C44.9683 56.9389 46.2296 56.3028 47.2796 55.4543L55.475 47.1824C57.576 45.0614 57.576 41.6684 55.475 39.7589L47.7003 31.912ZM43.7079 10.9133C43.9173 10.9133 44.338 11.1253 44.5485 11.1253L52.7431 19.3972C52.8429 19.4934 52.9223 19.6087 52.9765 19.7362C53.0307 19.8637 53.0586 20.0009 53.0586 20.1395C53.0586 20.2781 53.0307 20.4152 52.9765 20.5428C52.9223 20.6703 52.8429 20.7856 52.7431 20.8818L49.8011 23.8512L40.1351 14.0948L43.0767 11.1253C43.2532 10.9781 43.4784 10.9025 43.7079 10.9133ZM16.8101 26.1846L20.5932 22.3667C20.8964 22.054 21.066 21.6356 21.066 21.2C21.066 20.7644 20.8964 20.346 20.5932 20.0333C20.2861 19.7276 19.8704 19.556 19.4371 19.556C19.0037 19.556 18.5881 19.7276 18.2809 20.0333L14.4987 23.8512L11.7676 21.094C11.6677 20.9978 11.5884 20.8825 11.5341 20.755C11.4799 20.6274 11.452 20.4902 11.452 20.3516C11.452 20.213 11.4799 20.0758 11.5341 19.9482C11.5884 19.8206 11.6677 19.7053 11.7676 19.6091L19.9622 11.3377C20.1725 11.1253 20.3829 11.1253 20.8028 11.1253C21.2227 11.1253 21.4339 11.3377 21.6434 11.3377L29.2086 19.1851L19.5423 28.9415L16.8101 26.1846ZM26.0566 48.031C25.9434 48.146 25.7955 48.2205 25.6357 48.2428L12.8176 52.9096C12.3977 53.122 11.977 52.9096 11.7676 52.4855C11.5571 52.2735 11.5571 52.0611 11.5571 51.637L16.1799 38.6991C16.1799 38.4867 16.3903 38.4867 16.3903 38.2745L37.8237 16.64L47.4899 26.3965L43.287 30.6386L30.6792 43.3647L26.0566 48.031ZM52.5335 44.213L44.338 52.485C44.2437 52.5855 44.1298 52.6655 44.0033 52.7203C43.8768 52.775 43.7405 52.8032 43.6027 52.8032C43.4649 52.8032 43.3285 52.775 43.202 52.7203C43.0756 52.6655 42.9616 52.5855 42.8673 52.485L40.1351 49.7279L43.9173 45.9099C44.2209 45.5974 44.3907 45.1788 44.3907 44.7432C44.3907 44.3075 44.2209 43.889 43.9173 43.5765C43.6102 43.271 43.1947 43.0996 42.7616 43.0996C42.3285 43.0996 41.913 43.271 41.6059 43.5765L37.8237 47.3945L35.0924 44.6373L44.7578 34.8808L52.5334 42.7282C52.633 42.8245 52.7122 42.9398 52.7663 43.0674C52.8203 43.1949 52.8482 43.332 52.8482 43.4705C52.8482 43.609 52.8203 43.7461 52.7663 43.8736C52.7122 44.0011 52.633 44.1165 52.5334 44.2127L52.5335 44.213Z" fill="#666666"/>
<path id="Vector_2" d="M47.7003 31.912L55.475 24.0645C57.576 21.9435 57.576 18.5505 55.475 16.641L47.2803 8.3691C45.3888 6.4603 41.817 6.4603 39.9254 8.3691L29.2086 19.1851L19.5423 28.9415L13.2383 35.0926C12.6081 35.7287 12.1873 36.3653 11.977 37.2138L7.35424 50.1516C6.72408 51.8485 7.14381 53.5454 7.98536 54.8184C9.03539 56.0911 10.5063 56.9396 12.1874 56.9396C12.8176 56.9396 13.2384 56.9396 13.868 56.7277L26.6862 52.0609C27.5267 51.8486 28.1569 51.4243 28.7872 50.7883L32.148 47.6765L47.7003 31.912ZM43.7079 10.9133C43.9173 10.9133 44.338 11.1253 44.5485 11.1253L52.7431 19.3972C52.8429 19.4934 52.9223 19.6087 52.9765 19.7362C53.0307 19.8637 53.0586 20.0009 53.0586 20.1395C53.0586 20.2781 53.0307 20.4152 52.9765 20.5428C52.9223 20.6703 52.8429 20.7856 52.7431 20.8818L49.8011 23.8512L40.1351 14.0948L43.0767 11.1253C43.2532 10.9781 43.4784 10.9025 43.7079 10.9133ZM26.0566 48.031C25.9434 48.146 25.7955 48.2205 25.6357 48.2428L12.8176 52.9096C12.3977 53.122 11.977 52.9096 11.7676 52.4855C11.5571 52.2735 11.5571 52.0611 11.5571 51.637L16.1799 38.6991C16.1799 38.4867 16.3903 38.4867 16.3903 38.2745L37.8237 16.64L47.4899 26.3965L43.287 30.6386L30.6792 43.3647L26.0566 48.031Z" fill="#ED6C00"/>
</g>
</g>
</svg>
