<svg width="65" height="64" viewBox="0 0 65 64" fill="none" xmlns="http://www.w3.org/2000/svg">
<g id="Frame">
<g id="Group 4347">
<path id="Vector" d="M52.2996 57.7084H13.3056C11.1726 57.7084 9.40313 56.1121 9.18915 53.9894L6.15617 24.203C6.09885 23.6279 6.16247 23.0472 6.34294 22.4981C6.52342 21.9491 6.81676 21.4438 7.20411 21.0149C7.59146 20.586 8.06426 20.2428 8.59213 20.0075C9.12 19.7722 9.69126 19.6499 10.2692 19.6484H55.3326C55.9105 19.6494 56.4818 19.7713 57.0098 20.0062C57.5378 20.2411 58.0109 20.5839 58.3985 21.0125C58.7862 21.4411 59.0799 21.9461 59.2608 22.495C59.4417 23.0438 59.5058 23.6245 59.449 24.1996L56.416 53.986C56.3155 55.0069 55.838 55.9536 55.0768 56.6413C54.3156 57.329 53.3254 57.7083 52.2996 57.705V57.7084ZM10.2692 23.7852L13.3022 53.5716V53.575H52.2962L55.3292 23.7852H10.2692Z" fill="#666666"/>
<path id="Vector_2" d="M42.7255 28.4298C42.1772 28.4289 41.6516 28.2107 41.2639 27.823C40.8762 27.4353 40.658 26.9097 40.6571 26.3614V12.5177C40.6571 11.9688 40.4393 11.4424 40.0515 11.0539C39.6637 10.6655 39.1376 10.4468 38.5887 10.4459H27.007C26.4575 10.4459 25.9305 10.6642 25.542 11.0527C25.1534 11.4413 24.9352 11.9682 24.9352 12.5177V26.3614C24.8984 26.8845 24.6647 27.3741 24.2812 27.7317C23.8976 28.0892 23.3928 28.288 22.8685 28.288C22.3441 28.288 21.8393 28.0892 21.4557 27.7317C21.0722 27.3741 20.8385 26.8845 20.8018 26.3614V12.5177C20.8045 10.8728 21.4591 9.29606 22.6222 8.13294C23.7853 6.96982 25.3621 6.31519 27.007 6.3125H38.5887C40.2336 6.31519 41.8103 6.96982 42.9734 8.13294C44.1366 9.29606 44.7912 10.8728 44.7939 12.5177V26.3614C44.7939 26.9103 44.5761 27.4368 44.1883 27.8252C43.8005 28.2136 43.2744 28.4323 42.7255 28.4332V28.4298Z" fill="#666666"/>
<path id="Vector_3" d="M45.2085 44.2578H20.3877V47.3587C20.3877 48.4999 21.3149 49.4305 22.4561 49.4305H43.1401C43.4123 49.431 43.6819 49.3777 43.9335 49.2737C44.1851 49.1698 44.4136 49.0172 44.6061 48.8247C44.7986 48.6322 44.9512 48.4037 45.0551 48.1521C45.1591 47.9005 45.2124 47.6309 45.2119 47.3587V44.2578H45.2085Z" fill="#ED6C00"/>
</g>
</g>
</svg>
